<?xml version="1.0" encoding="iso-8859-1"?>
<!-- Generator: Adobe Illustrator 19.0.0, SVG Export Plug-In . SVG Version: 6.00 Build 0)  -->
<svg version="1.1" id="Layer_1" xmlns="http://www.w3.org/2000/svg" xmlns:xlink="http://www.w3.org/1999/xlink" x="0px" y="0px"
	 viewBox="0 0 511.984 511.984" style="enable-background:new 0 0 511.984 511.984;" xml:space="preserve">
<g>
	<path style="fill:#FFD2A6;" d="M383.984,511.984c-5.891,0-10.656-4.781-10.656-10.672v-95.996c0-5.891,4.766-10.672,10.656-10.672
		s10.656,4.781,10.656,10.672v95.996C394.64,507.203,389.875,511.984,383.984,511.984z"/>
	<path style="fill:#FFD2A6;" d="M127.992,511.984c-5.891,0-10.664-4.781-10.664-10.672v-95.996c0-5.891,4.773-10.672,10.664-10.672
		s10.664,4.781,10.664,10.672v95.996C138.656,507.203,133.883,511.984,127.992,511.984z"/>
</g>
<g>
	<path style="fill:#ED5564;" d="M490.637,362.644H383.984c-5.891,0-10.656,4.781-10.656,10.672v32
		c0,5.89,4.766,10.671,10.656,10.671h106.652c5.906,0,10.688-4.781,10.688-10.671v-32
		C501.324,367.426,496.543,362.644,490.637,362.644z"/>
	<path style="fill:#ED5564;" d="M127.992,362.644H21.331c-5.89,0-10.671,4.781-10.671,10.672v32c0,5.89,4.781,10.671,10.671,10.671
		h106.661c5.891,0,10.664-4.781,10.664-10.671v-32C138.656,367.426,133.883,362.644,127.992,362.644z"/>
</g>
<path style="fill:#F6BB42;" d="M277.332,511.984h-42.679c-5.891,0-10.664-4.781-10.664-10.672V330.646
	c0-5.891,4.773-10.656,10.664-10.656h42.679c5.875,0,10.654,4.766,10.654,10.656v170.666
	C287.986,507.203,283.207,511.984,277.332,511.984z"/>
<g>
	<path style="fill:#434A54;" d="M319.986,511.984H191.99c-5.891,0-10.664-4.781-10.664-10.672s4.773-10.671,10.664-10.671h127.996
		c5.891,0,10.656,4.78,10.656,10.671S325.877,511.984,319.986,511.984z"/>
	<path style="fill:#434A54;" d="M255.988,309.318c-5.89,0-10.664-4.781-10.664-10.672V10.655C245.324,4.764,250.097,0,255.988,0
		c5.891,0,10.664,4.765,10.664,10.655v287.991C266.652,304.537,261.879,309.318,255.988,309.318z"/>
</g>
<path style="fill:#ED5564;" d="M494.293,107.293L259.637,21.968c-2.359-0.859-4.938-0.859-7.296,0L17.682,107.293
	c-4.21,1.531-7.023,5.547-7.023,10.031v21.327c0,5.891,4.781,10.672,10.671,10.672h469.306c5.906,0,10.688-4.781,10.688-10.672
	v-21.327C501.324,112.84,498.512,108.824,494.293,107.293z"/>
<path style="fill:#FFCE54;" d="M405.328,341.317H106.657c-5.89,0-10.664-4.78-10.664-10.671v-32c0-5.89,4.773-10.655,10.664-10.655
	h298.671c5.875,0,10.656,4.766,10.656,10.655v32C415.984,336.537,411.203,341.317,405.328,341.317z"/>
<g>
	<path style="fill:#FFD2A6;" d="M490.637,511.984c-5.873,0-10.654-4.781-10.654-10.672V245.32c0-5.891,4.781-10.671,10.654-10.671
		c5.906,0,10.688,4.78,10.688,10.671v255.992C501.324,507.203,496.543,511.984,490.637,511.984z"/>
	<path style="fill:#FFD2A6;" d="M21.331,511.984c-5.89,0-10.671-4.781-10.671-10.672V245.32c0-5.891,4.781-10.671,10.671-10.671
		c5.891,0,10.664,4.78,10.664,10.671v255.992C31.995,507.203,27.221,511.984,21.331,511.984z"/>
</g>
<g>
</g>
<g>
</g>
<g>
</g>
<g>
</g>
<g>
</g>
<g>
</g>
<g>
</g>
<g>
</g>
<g>
</g>
<g>
</g>
<g>
</g>
<g>
</g>
<g>
</g>
<g>
</g>
<g>
</g>
</svg>
