<?xml version="1.0" encoding="iso-8859-1"?>
<!-- Generator: Adobe Illustrator 19.0.0, SVG Export Plug-In . SVG Version: 6.00 Build 0)  -->
<svg version="1.1" id="Layer_1" xmlns="http://www.w3.org/2000/svg" xmlns:xlink="http://www.w3.org/1999/xlink" x="0px" y="0px"
	 viewBox="0 0 512 512" style="enable-background:new 0 0 512 512;" xml:space="preserve">
<circle style="fill:#366796;" cx="256" cy="256" r="256"/>
<path style="fill:#273B7A;" d="M370.652,142.965l-28.5,25.919l-132.41,4.31l0.695,150.249l-72.416,79.11l109.52,109.294
	c2.81,0.091,5.627,0.153,8.459,0.153c132.311,0,241.171-100.378,254.6-229.136L370.652,142.965z"/>
<path style="fill:#38C6D9;" d="M286.351,307.165l-85.333-28.444c-2.844-0.95-5.961,0.338-7.304,3.025l-56.889,113.778
	c-0.934,1.87-0.834,4.093,0.264,5.87c1.1,1.779,3.043,2.862,5.134,2.862h142.222c3.332,0,6.034-2.701,6.034-6.034v-85.333
	C290.478,310.291,288.816,307.986,286.351,307.165z"/>
<path style="fill:#71E2EF;" d="M355.556,136.189c-11.169,0-20.256,9.087-20.256,20.256c0,2.915,0.631,5.682,1.745,8.189H199.111
	c-3.332,0-6.034,2.701-6.034,6.034s2.701,6.034,6.034,6.034h127.657l-75.033,75.033c-2.357,2.355-2.357,6.177,0,8.532
	c1.179,1.179,2.722,1.767,4.267,1.767c1.545,0,3.087-0.59,4.267-1.767l75.033-75.033v127.657c0,3.332,2.701,6.034,6.034,6.034
	s6.034-2.701,6.034-6.034V174.956c2.507,1.114,5.273,1.745,8.189,1.745c11.169,0,20.256-9.087,20.256-20.256
	S366.725,136.189,355.556,136.189z"/>
<path style="fill:#38C6D9;" d="M369.738,142.007L250.406,258.265c0.295,0.727,0.736,1.41,1.327,2
	c1.179,1.179,2.722,1.767,4.267,1.767c1.545,0,3.087-0.59,4.267-1.767l75.033-75.033v127.657c0,3.332,2.701,6.034,6.034,6.034
	s6.034-2.701,6.034-6.034V174.956c2.507,1.114,5.273,1.745,8.189,1.745c11.169,0,20.256-9.087,20.256-20.256
	C375.811,150.795,373.481,145.686,369.738,142.007z"/>
<path style="fill:#FFEDB5;" d="M167.574,115.364c-33.747,62.697-24.183,142.55,28.755,195.487s132.791,62.507,195.489,28.763
	L167.574,115.364z"/>
<path style="fill:#FEE187;" d="M391.818,339.615l-110.987-110.99l-84.451,82.277C249.318,363.796,329.14,373.348,391.818,339.615z"
	/>
<g>
</g>
<g>
</g>
<g>
</g>
<g>
</g>
<g>
</g>
<g>
</g>
<g>
</g>
<g>
</g>
<g>
</g>
<g>
</g>
<g>
</g>
<g>
</g>
<g>
</g>
<g>
</g>
<g>
</g>
</svg>
