<?xml version="1.0" encoding="iso-8859-1"?>
<!-- Generator: Adobe Illustrator 19.0.0, SVG Export Plug-In . SVG Version: 6.00 Build 0)  -->
<svg version="1.1" id="Layer_1" xmlns="http://www.w3.org/2000/svg" xmlns:xlink="http://www.w3.org/1999/xlink" x="0px" y="0px"
	 viewBox="0 0 512 512" style="enable-background:new 0 0 512 512;" xml:space="preserve">
<circle style="fill:#0091EA;" cx="256" cy="256" r="256"/>
<path style="fill:#FFFFFF;" d="M386.327,372.364c-2.863-6.204-7.899-11.143-14.164-13.88l-69.618-18.702v-23.277l-15.09,15.09
	c-5.241,5.236-12.339,8.178-19.745,8.178H256h-11.711c-7.405,0-14.504-2.942-19.745-8.178l-15.09-15.09v23.277l-69.618,18.702
	c-6.265,2.737-11.301,7.675-14.164,13.88l-18.618,32.582H256h148.945L386.327,372.364z"/>
<path style="fill:#A16D5A;" d="M325.818,228.073c-1.974,0-3.449,0.475-4.673,1.131c-0.037-3.57,0.154-7.056,0-10.44H191.13
	c-0.209,4.492-0.289,9.151-0.293,13.964v57.451c0,4.943,1.964,9.681,5.455,13.172l28.253,28.244
	c5.241,5.236,12.339,8.178,19.745,8.178H256h11.711c7.405,0,14.504-2.942,19.745-8.178l28.253-28.244
	c3.491-3.491,5.455-8.229,5.455-13.172v-16.431c10.361-4.063,13.964-21.69,13.964-35.323
	C335.127,233.244,330.473,228.073,325.818,228.073z"/>
<g>
	<circle style="fill:#FBC02D;" cx="256" cy="390.982" r="9.309"/>
	<circle style="fill:#FBC02D;" cx="256" cy="358.4" r="9.309"/>
</g>
<path style="fill:#BC8B7A;" d="M191.13,218.764c-0.158,3.389-0.242,6.87-0.279,10.44c-1.219-0.656-2.695-1.131-4.669-1.131
	c-4.655,0-9.309,5.171-9.309,10.347c0,13.638,3.603,31.265,13.964,35.323v16.431c0,4.943,1.964,9.681,5.455,13.172l28.253,28.244
	c5.241,5.236,12.339,8.178,19.745,8.178H256V218.764H191.13z"/>
<path style="fill:#8F4E38;" d="M237.382,288.582h37.236c0,0,0,13.964-18.618,13.964S237.382,288.582,237.382,288.582z"/>
<g>
	<path style="fill:#212121;" d="M242.008,237.373c0-5.139-4.17-9.309-9.309-9.309c-0.009,0-0.019,0-0.033,0
		c0.005,0.098,0.033,0.191,0.033,0.289c0,5.134-4.157,9.29-9.281,9.309c0.154,5.004,4.236,9.021,9.281,9.021
		C237.838,246.682,242.008,242.511,242.008,237.373z"/>
	<path style="fill:#212121;" d="M288.521,237.373c0-5.139-4.17-9.309-9.309-9.309c-0.009,0-0.019,0-0.033,0
		c0.009,0.098,0.033,0.191,0.033,0.289c0,5.134-4.152,9.29-9.277,9.309c0.154,5.004,4.236,9.021,9.277,9.021
		C284.355,246.682,288.521,242.511,288.521,237.373z"/>
</g>
<path style="fill:#F0F0F0;" d="M335.127,146.618c0-16.705-13.545-30.255-30.255-30.255c-6.991,0-13.419,2.397-18.534,6.381
	c-6.758-9.486-17.813-15.69-30.338-15.69c-12.525,0-23.58,6.205-30.338,15.69c-5.115-3.984-11.543-6.381-18.534-6.381
	c-16.71,0-30.255,13.549-30.255,30.255c0,10.705,5.571,20.089,13.964,25.47v46.676h130.327v-46.676
	C329.556,166.707,335.127,157.324,335.127,146.618z"/>
<rect x="283.927" y="167.564" style="fill:#E0E0E0;" width="9.309" height="41.891"/>
<path style="fill:#FFFFFF;" d="M256,218.764V107.055c-12.525,0-23.58,6.205-30.338,15.69c-5.115-3.984-11.543-6.381-18.534-6.381
	c-16.71,0-30.255,13.549-30.255,30.255c0,10.705,5.571,20.089,13.964,25.47v46.676H256z"/>
<g>
	<rect x="251.345" y="167.564" style="fill:#E0E0E0;" width="9.309" height="41.891"/>
	<rect x="218.764" y="167.564" style="fill:#E0E0E0;" width="9.309" height="41.891"/>
</g>
<g>
	<polygon style="fill:#212121;" points="307.2,218.764 307.2,246.691 311.855,246.691 321.164,228.073 321.164,218.764 	"/>
	<polygon style="fill:#212121;" points="190.836,218.764 190.836,228.073 200.145,246.691 204.8,246.691 204.8,218.764 	"/>
	<path style="fill:#212121;" d="M256,279.273c-9.309-13.964-32.582-4.655-41.891,9.309c13.964,0,41.891,0,41.891,0V279.273z"/>
	<path style="fill:#212121;" d="M256,279.273c9.309-13.964,32.582-4.655,41.891,9.309c-13.964,0-41.891,0-41.891,0V279.273z"/>
</g>
<g>
</g>
<g>
</g>
<g>
</g>
<g>
</g>
<g>
</g>
<g>
</g>
<g>
</g>
<g>
</g>
<g>
</g>
<g>
</g>
<g>
</g>
<g>
</g>
<g>
</g>
<g>
</g>
<g>
</g>
</svg>
